<?xml version="1.0" encoding="UTF-8" standalone="no"?>
<svg
   xmlns:osb="http://www.openswatchbook.org/uri/2009/osb"
   xmlns:dc="http://purl.org/dc/elements/1.1/"
   xmlns:cc="http://creativecommons.org/ns#"
   xmlns:rdf="http://www.w3.org/1999/02/22-rdf-syntax-ns#"
   xmlns:svg="http://www.w3.org/2000/svg"
   xmlns="http://www.w3.org/2000/svg"
   xmlns:xlink="http://www.w3.org/1999/xlink"
   xmlns:sodipodi="http://sodipodi.sourceforge.net/DTD/sodipodi-0.dtd"
   xmlns:inkscape="http://www.inkscape.org/namespaces/inkscape"
   width="48"
   height="48"
   version="1.1"
   viewBox="0 0 12.7 12.7"
   id="svg51"
   sodipodi:docname="header-icon.svg"
   inkscape:version="0.92.4 (5da689c313, 2019-01-14)">
  <metadata
     id="metadata55">
    <rdf:RDF>
      <cc:Work
         rdf:about="">
        <dc:format>image/svg+xml</dc:format>
        <dc:type
           rdf:resource="http://purl.org/dc/dcmitype/StillImage" />
      </cc:Work>
    </rdf:RDF>
  </metadata>
  <sodipodi:namedview
     pagecolor="#ffffff"
     bordercolor="#666666"
     borderopacity="1"
     objecttolerance="10"
     gridtolerance="10"
     guidetolerance="10"
     inkscape:pageopacity="0"
     inkscape:pageshadow="2"
     inkscape:window-width="1920"
     inkscape:window-height="1036"
     id="namedview53"
     showgrid="true"
     inkscape:zoom="10.24"
     inkscape:cx="53.498041"
     inkscape:cy="28.332528"
     inkscape:window-x="0"
     inkscape:window-y="0"
     inkscape:window-maximized="1"
     inkscape:current-layer="svg51"
     inkscape:snap-intersection-paths="true"
     inkscape:snap-global="false"
     inkscape:snap-bbox="true"
     inkscape:bbox-paths="true"
     inkscape:bbox-nodes="true">
    <inkscape:grid
       type="xygrid"
       id="grid888" />
  </sodipodi:namedview>
  <defs
     id="defs7">
    <linearGradient
       id="linearGradient951"
       osb:paint="solid">
      <stop
         style="stop-color:#6237a0;stop-opacity:1;"
         offset="0"
         id="stop949" />
    </linearGradient>
    <linearGradient
       id="linearGradient909"
       osb:paint="solid">
      <stop
         style="stop-color:#000000;stop-opacity:1;"
         offset="0"
         id="stop907" />
    </linearGradient>
    <linearGradient
       id="a"
       x1="48.979"
       x2="48.979"
       y1="92.935"
       y2="105.64"
       gradientUnits="userSpaceOnUse"
       gradientTransform="translate(-42.629,-92.913093)"
       osb:paint="gradient">
      <stop
         stop-color="#716ffb"
         offset="0"
         id="stop2" />
      <stop
         stop-color="#6c6af2"
         offset="1"
         id="stop4" />
    </linearGradient>
    <linearGradient
       inkscape:collect="always"
       xlink:href="#linearGradient951"
       id="linearGradient953"
       x1="1.6174316e-06"
       y1="6.3719042"
       x2="12.700001"
       y2="6.3719042"
       gradientUnits="userSpaceOnUse" />
    <clipPath
       clipPathUnits="userSpaceOnUse"
       id="clipPath961">
      <use
         x="0"
         y="0"
         xlink:href="#g957"
         id="use963"
         width="100%"
         height="100%" />
    </clipPath>
  </defs>
  <g
     id="g24"
     transform="matrix(0.01513182,0,0,-0.01513182,6.8346414,5.3014949)"
     style="fill:#f9f9f9;stroke-width:23.31363487" />
  <g
     id="g28"
     transform="matrix(0.01513182,0,0,-0.01513182,8.113365,6.1781283)"
     style="fill:#f9f9f9;stroke-width:23.31363487" />
  <g
     id="g32"
     transform="matrix(0.01513182,0,0,-0.01513182,10.84524,6.8926877)"
     style="fill:#f9f9f9;stroke-width:23.31363487" />
  <g
     id="g959"
     clip-path="url(#clipPath961)">
    <g
       inkscape:label="Clip"
       id="g957">
      <rect
         id="rect9"
         style="fill:url(#linearGradient953);fill-rule:evenodd;paint-order:stroke fill markers;fill-opacity:1"
         rx="0"
         height="12.7"
         width="12.7"
         y="0.021904338"
         x="1.6174316e-06" />
      <path
         inkscape:connector-curvature="0"
         id="path896"
         d="m 7.549818,2.9451576 c -0.547808,0 -1.062915,0.2133762 -1.449897,0.6006632 L 3.260376,6.3852173 c -0.387289,0.3874254 -0.600664,0.902392 -0.600664,1.4500484 0,1.13074 0.919969,2.0507056 2.050708,2.0507056 0.54812,0 1.062917,-0.213223 1.449896,-0.6005176 l 2.8394,-2.8393935 C 9.3872967,6.0586212 9.6005253,5.543672 9.6005253,4.995865 9.6005103,3.8651403 8.680543,2.9451576 7.549818,2.9451576 Z m 0,0.6310103 c 0.782894,0 1.419695,0.6368205 1.419695,1.4196971 0,0.3792767 -0.147551,0.7358846 -0.415906,1.0040808 L 7.245469,7.3079317 5.237749,5.3000675 6.546032,3.9919317 C 6.814081,3.7237377 7.170542,3.5761679 7.549818,3.5761679 Z M 4.764565,5.8388501 c 0.04036,0 0.08076,0.015452 0.111567,0.04627 0.06164,0.061606 0.06161,0.1613573 0,0.2229803 L 3.929615,7.0544616 C 3.721033,7.2630454 3.606079,7.5404054 3.606079,7.8352687 c 0,0.08717 -0.07048,0.15783 -0.157679,0.15783 -0.0872,0 -0.157826,-0.07061 -0.157826,-0.15783 0,-0.3792797 0.147554,-0.7357445 0.415911,-1.0039356 L 4.653003,5.8851122 c 0.03081,-0.03081 0.07121,-0.04627 0.111562,-0.046262 z"
         style="fill:#ffffff;fill-opacity:1;stroke-width:0.01478885" />
    </g>
  </g>
  <path
     style="fill:#6237a0;fill-opacity:0;stroke-width:0.04882812"
     d="M 0.03046728,24.085168 V 0.11055861 H 24.005077 47.979686 V 24.085168 48.059778 H 24.005077 0.03046728 Z M 19.09734,38.22006 c 1.2972,-0.195512 2.383193,-0.640993 3.503399,-1.437115 0.359998,-0.255848 11.671135,-11.523519 12.109545,-12.063011 0.808193,-0.994534 1.326548,-2.08395 1.608901,-3.381395 0.09331,-0.428784 0.108907,-0.647263 0.108907,-1.525832 0,-1.12643 -0.0615,-1.54483 -0.362463,-2.465805 -0.523877,-1.603124 -1.712851,-3.137439 -3.149419,-4.064176 -2.314523,-1.493109 -5.245412,-1.654816 -7.697194,-0.424679 -0.576557,0.289277 -0.944005,0.527339 -1.433666,0.928841 -0.187988,0.154143 -2.947175,2.89137 -6.131526,6.082727 -6.272835,6.286636 -6.076185,6.073843 -6.625766,7.169655 -1.1101605,2.213551 -1.1110492,4.769216 -0.0024,6.980301 0.666491,1.32928 1.789655,2.516087 3.09175,3.266942 0.837436,0.482908 1.921614,0.84336 2.929688,0.974021 0.389573,0.05049 1.60604,0.02648 2.050271,-0.04047 z"
     id="path943"
     inkscape:connector-curvature="0"
     transform="scale(0.26458333)" />
</svg>
